<svg width="41" height="29" viewBox="0 0 41 29" fill="none" xmlns="http://www.w3.org/2000/svg"><style>#elem1 {fill: #ddd;} #elem2 {fill: #28bd8b;}</style><path id="elem1" fill-rule="evenodd" clip-rule="evenodd" d="M24.724 16.972C26.77 18.852 29.502 20 32.5 20c.167 0 .334-.004.5-.01v5.76c0 1.788-1.485 3.25-3.3 3.25H3.3C1.485 29 0 27.538 0 25.75V11.125c0-1.787 1.485-3.25 3.3-3.25h3.96c.545 0 1.13-.416 1.303-.925l1.023-3.025c.173-.51.76-.925 1.304-.925h11.22c.09 0 .18.01.27.032C21.5 4.66 21 6.522 21 8.5c0 .857.094 1.693.272 2.497C19.925 10.054 18.278 9.5 16.5 9.5c-4.556 0-8.25 3.638-8.25 8.125 0 4.488 3.694 8.125 8.25 8.125s8.25-3.637 8.25-8.125c0-.22-.01-.438-.026-.653zm-13.174.653c0-2.692 2.216-4.875 4.95-4.875 2.733 0 4.95 2.183 4.95 4.875 0 2.693-2.216 4.875-4.95 4.875s-4.95-2.182-4.95-4.875z" fill="#DDD"/><path id="elem2" fill-rule="evenodd" clip-rule="evenodd" d="M24.286 8.5c0 4.536 3.678 8.214 8.214 8.214 4.536 0 8.214-3.678 8.214-8.214 0-4.536-3.678-8.214-8.214-8.214-4.536 0-8.214 3.678-8.214 8.214zM32.5 3.57c-.778 0-1.408.632-1.408 1.41v2.112H28.98c-.778 0-1.41.63-1.41 1.408 0 .778.632 1.408 1.41 1.408h2.112v2.112c0 .778.63 1.41 1.408 1.41.778-.002 1.408-.632 1.408-1.41V9.908h2.112c.778 0 1.41-.63 1.41-1.408 0-.778-.632-1.408-1.41-1.408h-2.112V4.98c0-.778-.63-1.41-1.408-1.41z" fill="#28BD8B"/></svg>
